<svg xmlns="http://www.w3.org/2000/svg" xmlns:xlink="http://www.w3.org/1999/xlink"><symbol id="all-inclusive-small"><g fill="none"><path fill="#011C40" d="M20.43 2.74 18.79 0l-7.37 12.3 1.64 2.74 7.37-12.3ZM25.36 0l-12.3 20.52-4.85-8.09-1.64 2.75L13.06 26 27 2.74 25.36 0ZM0 15.18 6.49 26l1.64-2.74-6.49-10.83L0 15.18Z"/></g></symbol><symbol id="all-inclusive"><g fill="none"><path fill="#011C40" d="M28.75 3.38 26.44 0 16.07 15.14l2.32 3.37L28.75 3.38ZM35.7 0 18.38 25.25l-6.82-9.95-2.31 3.38L18.38 32 38 3.38 35.7 0ZM0 18.68 9.13 32l2.32-3.38L2.3 15.3 0 18.68Z"/></g></symbol><symbol id="burger" viewBox="0 0 24 14"><g fill="none">
<path d="M0 1H24M0 7H24M0 13H24" stroke="#F9FBFD" stroke-width="2"/>
</g></symbol><symbol id="check"><g fill="none"><path stroke="#101A56" d="M1 2.5 5.3 7 11 1"/></g></symbol><symbol id="dzen"><g fill="none"><path fill="#F9FBFD" d="M19.56 9.56a.44.44 0 0 0 .44-.48A10.03 10.03 0 0 0 10.92 0a.44.44 0 0 0-.48.44c.08 6.4.93 9.03 9.12 9.12Zm0 .88c-8.2.1-9.04 2.71-9.11 9.12a.44.44 0 0 0 .47.44A10.03 10.03 0 0 0 20 10.92a.44.44 0 0 0-.44-.48ZM9.05 0C4.25.46.44 4.27 0 9.08a.44.44 0 0 0 .44.48c8.17-.1 9.01-2.71 9.09-9.12A.44.44 0 0 0 9.05 0ZM.45 10.44c-.14-.01-.25.05-.33.14a.44.44 0 0 0-.12.34A10.03 10.03 0 0 0 9.1 20a.44.44 0 0 0 .43-.44c-.08-6.4-.92-9.02-9.09-9.12Z"/></g></symbol><symbol id="icon-close" viewBox="0 0 20 20"><g fill="none"><path d="M.293 18.291a1 1 0 101.414 1.414L10 11.413l8.292 8.292a1 1 0 101.414-1.414l-8.292-8.292 8.292-8.292A1 1 0 1018.291.293L9.999 8.585 1.707.293A1 1 0 10.293 1.707L8.585 10 .293 18.291z"/></g></symbol><symbol id="liner-small"><g fill="none"><path fill="#011C40" d="m3.43 13.32 6.85-5.25c.15-.1.35-.1.5 0l6.9 5.25V7.06c.03-.86-.59-1.59-1.4-1.63H4.86c-.8.02-1.44.73-1.42 1.6v6.29ZM12.25 0h-3.4v4.34h3.4V0Z"/><path fill="#011C40" d="M18.9 24.5 21 17.1l-2.95-2.21-.2-.11-6.96-5.18v15.28h-.37l-.65-.04V9.6L0 17.1l2.17 7.38L3.43 26h7.09c1 .02 2.8 0 2.8 0h4.42l1.16-1.48Z"/></g></symbol><symbol id="liner"><g fill="none"><path fill="#011C40" d="m4.4 16.4 8.82-6.46a.6.6 0 0 1 .65 0l8.86 6.46V8.69a1.9 1.9 0 0 0-1.84-2H6.24a1.9 1.9 0 0 0-1.83 2v7.7ZM15.75 0h-4.37v5.35h4.37V0Z"/><path fill="#011C40" d="m24.3 30.16 2.7-9.13-3.8-2.72-.26-.13L14 11.8v18.8h-.48l-.83-.05V11.81L0 21.03l2.8 9.09 1.6 1.87H13.52c1.3.02 3.6 0 3.6 0h5.7l1.48-1.83Z"/></g></symbol><symbol id="logo-desktop"><g fill="none"><path fill="#F9FBFD" fill-rule="evenodd" d="m.9 31.13 13.77-18.59 3.77 2.02L27.4 0 33 6.66l2.08-1.7 8.05 10.22 5.72-6.82L64.8 31.13 49.42 11.77l-2.34 8.13 2.15 6.42L35.45 7.36l-.15 6.47 7.81 17.3-14.61-26.8 4.22 14.48-5.91-14.09-3.25 9.37.65-6.12-8.12 22.07.98-9.29-3.38-3.72L.9 31.13Z" clip-rule="evenodd"/><path fill="#F9FBFD" fill-rule="evenodd" d="M69.44 34.03C47.64 16.43 13.71 40.63 0 31.3c15.07 13.22 50.3-9.14 69.44 2.73Z" clip-rule="evenodd"/><path fill="#F9FBFD" fill-rule="evenodd" d="M70 35.42c-17.1-10.9-42.54 4.26-55.58.75 14.13 6.86 40.43-8.33 55.58-.75Z" clip-rule="evenodd"/></g></symbol><symbol id="logo-mobile"><g fill="none"><path fill="#F9FBFD" fill-rule="evenodd" d="M.54 18.02 8.8 7.26l2.26 1.17L16.44 0l3.35 3.86 1.25-1 4.83 5.93 3.43-3.95 9.59 13.18-9.24-11.2-1.4 4.7 1.29 3.72-8.27-10.98L21.18 8l4.7 10.01L17.1 2.51l2.54 8.38-3.55-8.16-1.95 5.43.4-3.54-4.88 12.77.59-5.38-2.03-2.15-7.68 8.16Z" clip-rule="evenodd"/><path fill="#F9FBFD" fill-rule="evenodd" d="M41.66 19.7C28.58 9.51 8.23 23.52 0 18.12c9.04 7.66 30.18-5.29 41.66 1.58Z" clip-rule="evenodd"/><path fill="#F9FBFD" fill-rule="evenodd" d="M42 20.5c-10.26-6.3-25.53 2.47-33.35.44 8.48 3.97 24.26-4.82 33.35-.44Z" clip-rule="evenodd"/></g></symbol><symbol id="logo-modal"><g fill="none"><path fill="#011C40" fill-rule="evenodd" d="M.54 18.02 8.8 7.26l2.26 1.17L16.44 0l3.35 3.86 1.25-1 4.83 5.93 3.43-3.95 9.59 13.18-9.24-11.2-1.4 4.7 1.29 3.72-8.27-10.98L21.18 8l4.7 10.01L17.1 2.51l2.54 8.38-3.55-8.16-1.95 5.43.4-3.54-4.88 12.77.59-5.38-2.03-2.15-7.68 8.16Z" clip-rule="evenodd"/><path fill="#011C40" fill-rule="evenodd" d="M41.66 19.7C28.58 9.51 8.23 23.52 0 18.12c9.04 7.66 30.18-5.29 41.66 1.58Z" clip-rule="evenodd"/><path fill="#011C40" fill-rule="evenodd" d="M42 20.5c-10.26-6.3-25.53 2.47-33.35.44 8.48 3.97 24.26-4.82 33.35-.44Z" clip-rule="evenodd"/></g></symbol><symbol id="logo-tablet"><g fill="none"><path fill="#F9FBFD" fill-rule="evenodd" d="M.49 16.38 7.97 6.6 10 7.66 14.88 0l3.03 3.5 1.13-.9L23.4 8l3.1-3.59 8.67 11.98L26.83 6.2l-1.27 4.28 1.16 3.39-7.47-9.99-.08 3.4 4.24 9.11-7.94-14.1 2.3 7.62-3.21-7.41-1.76 4.93.35-3.22-4.4 11.61.52-4.89-1.83-1.95-6.95 7.41Z" clip-rule="evenodd"/><path fill="#F9FBFD" fill-rule="evenodd" d="M37.7 17.91C25.86 8.65 7.44 21.38 0 16.47c8.18 6.96 27.3-4.8 37.7 1.44Z" clip-rule="evenodd"/><path fill="#F9FBFD" fill-rule="evenodd" d="M38 18.64c-9.29-5.74-23.1 2.25-30.17.4 7.67 3.6 21.94-4.39 30.17-.4Z" clip-rule="evenodd"/></g></symbol><symbol id="ok"><g fill="none"><path fill="#F9FBFD" d="M5.88 3.03c1.2 0 2.16.95 2.16 2.13S7.07 7.3 5.88 7.3c-1.2 0-2.17-.96-2.17-2.14 0-1.18.97-2.13 2.17-2.13Zm0 7.3a5.2 5.2 0 0 0 5.23-5.17A5.2 5.2 0 0 0 5.88 0 5.2 5.2 0 0 0 .63 5.16a5.2 5.2 0 0 0 5.24 5.16Zm2.11 4.2a9.95 9.95 0 0 0 3.04-1.24 1.5 1.5 0 0 0 .49-2.08 1.54 1.54 0 0 0-2.12-.48 6.73 6.73 0 0 1-7.05 0 1.54 1.54 0 0 0-2.12.48 1.5 1.5 0 0 0 .49 2.08c.94.59 1.97 1 3.04 1.24L.83 17.42a1.5 1.5 0 0 0 0 2.14 1.55 1.55 0 0 0 2.17 0l2.88-2.84 2.87 2.84c.6.59 1.57.59 2.17 0 .6-.6.6-1.55 0-2.14L8 14.53Z"/></g></symbol><symbol id="phone"><g fill="none"><path fill="#011C40" d="M18 13.42v3.536a1 1 0 0 1-.93.998c-.437.03-.794.046-1.07.046C7.163 18 0 10.837 0 2c0-.276.015-.633.046-1.07A1 1 0 0 1 1.044 0H4.58a.5.5 0 0 1 .498.45c.023.23.044.413.064.552A13.9 13.9 0 0 0 6.35 5.003c.095.2.033.439-.147.567L4.045 7.112a13.047 13.047 0 0 0 6.844 6.844l1.54-2.154a.462.462 0 0 1 .573-.149 13.9 13.9 0 0 0 4 1.205c.139.02.322.042.55.064a.5.5 0 0 1 .449.498H18Z"/></g></symbol><symbol id="plus"><g fill="none"><path stroke="#011C40" stroke-width="2" d="m1 1 6.5 6.5M14 14 7.5 7.5m0 0L14 1 1 14"/></g></symbol><symbol id="point"><g fill="none"><path fill="#011C40" d="M15.364 15.556 9 22l-6.364-6.444a9.149 9.149 0 0 1-2.463-4.665 9.219 9.219 0 0 1 .512-5.266A9.09 9.09 0 0 1 4 1.535 8.921 8.921 0 0 1 9 0c1.78 0 3.52.534 5 1.536a9.089 9.089 0 0 1 3.315 4.09 9.22 9.22 0 0 1 .512 5.264 9.149 9.149 0 0 1-2.463 4.666ZM9 11.138c.53 0 1.04-.214 1.414-.594a2.038 2.038 0 0 0 0-2.864A1.988 1.988 0 0 0 9 7.089c-.53 0-1.04.213-1.414.593C7.21 8.06 7 8.576 7 9.113c0 .537.21 1.052.586 1.431.375.38.884.594 1.414.594Z"/></g></symbol><symbol id="reddit"><g fill="none"><path fill="#F9FBFD" d="M12 0c-.7 0-1.3.3-1.7.8-.4.5-.6 1-.7 1.6-.3 1-.4 2-.4 3-1.8.2-3.4.7-4.8 1.5-.5-.4-1.2-.7-1.8-.7-.7 0-1.4.3-2 1-1 1.2-.8 3.2.3 4.4v1.1c0 4 4 7.3 9.1 7.3 5 0 9.2-3.3 9.2-7.3l-.1-1.1a3.5 3.5 0 0 0 .2-4.4c-.5-.7-1.2-1-1.9-1-.6 0-1.3.3-1.8.7-1.4-.8-3-1.3-4.8-1.4 0-1 0-1.9.3-2.6 0-.4.2-.7.4-.9.1-.2.2-.2.4-.2.6 0 .6.1 1 .5l.6.7c.3.3.7.5 1.2.5V1.8l-.3-.1-.4-.5C13.7.7 13 0 12 0Zm5 .2c-1.2 0-2.2 1-2.2 2.4s1 2.5 2.2 2.5c1.2 0 2.2-1.1 2.2-2.5 0-1.3-1-2.4-2.2-2.4Zm0 .8c.8 0 1.4.8 1.4 1.6 0 1-.6 1.6-1.4 1.6-.8 0-1.4-.7-1.4-1.6 0-.8.6-1.6 1.4-1.6Zm-7 5.8c4.3 0 8 2.7 8 6 0 3.1-3.7 5.8-8 5.8s-8-2.7-8-5.9 3.7-5.9 8-5.9Zm-7.4.8c.2 0 .4 0 .7.2-.8.6-1.4 1.4-1.9 2.3-.3-.7-.2-1.5.2-2 .2-.3.6-.5 1-.5Zm14.8 0c.4 0 .8.2 1 .5.4.5.5 1.3.2 2-.5-.9-1-1.7-1.9-2.3l.7-.2ZM6.9 9.8c-.8 0-1.4.7-1.4 1.6 0 .9.6 1.6 1.4 1.6.8 0 1.4-.7 1.4-1.6 0-.9-.6-1.6-1.4-1.6Zm6.2 0c-.8 0-1.4.7-1.4 1.6 0 .9.6 1.6 1.4 1.6.8 0 1.4-.7 1.4-1.6 0-.9-.6-1.6-1.4-1.6Zm-7 5.4c.5 1.2 2 2.3 3.9 2.3 1.8 0 3.4-1.1 3.9-2.3-1 .7-2.3 1.1-3.9 1.1s-3-.4-3.9-1Z"/></g></symbol><symbol id="zodiac-small"><g fill="none"><path fill="#011C40" d="M33.9 20.9 1.35 13.99c-.25-.06-.42.45-.3.86C3.15 21.39 8.08 26 13.8 26h19.42c.13 0 .25-.16.29-.4l.65-3.98c.05-.33-.07-.68-.26-.72ZM35.9 9.56c-.09-.28-.25-.46-.42-.5l-9-2.27c-.32-.08-.63.35-.67.97-.05.62.18 1.2.51 1.27l1.02.26c.15.04.26.28.26.56v1.75c0 .33-.15.6-.33.56l-2.4-.49c-.15-.03-.27-.27-.27-.56V6.16c0-.1.02-.22.05-.3l1.05-2.97c.12-.34.13-.78.04-1.14-.1-.36-.3-.6-.51-.62L12.63 0c-.2 0-.4.16-.52.47L9.2 8.22c-.06.17-.17.26-.28.23L.66 6.8c-.17-.04-.33.07-.46.28-.13.22-.2.52-.2.84 0 1.1.08 2.16.22 3.2.03.22.13.39.26.42l33.9 7.2c.14.02.27-.14.32-.4l1.27-7.82c.06-.32.03-.67-.06-.95ZM17.32 3.3l-.46 6.18c-.03.3-.17.51-.33.48-1.17-.22-5.57-1.1-5.57-1.1-.22-.04-.34-.53-.2-.89l2.05-5.43c.06-.16.16-.25.26-.24l3.97.36c.18.01.31.31.28.64Zm6.51.83-.37 1.04c-.03.09-.05.2-.05.31v5.27c0 .34-.15.6-.33.56l-4.76-.96c-.17-.03-.3-.32-.27-.64l.49-6.4c.02-.3.15-.5.3-.49l4.75.43c.24.02.37.51.24.88Zm7.38 8.2c0 .33-.15.6-.33.56l-1.8-.4c-.16-.03-.27-.27-.27-.55V10.3c0-.34.16-.6.34-.56l1.8.45c.15.04.26.28.26.56v1.57Zm3.31-.57-.22 1.36c-.04.25-.17.42-.32.4l-1.3-.27c-.15-.03-.27-.27-.27-.56V11.2c0-.34.16-.6.34-.56l1.53.38c.18.05.3.4.24.73Z"/></g></symbol><symbol id="zodiac"><g fill="none"><path fill="#011C40" d="m41.44 25.72-39.8-8.5c-.3-.07-.5.56-.35 1.06C3.84 26.33 9.86 32 16.87 32H40.6c.17 0 .3-.2.35-.5l.8-4.88c.07-.42-.08-.85-.31-.9ZM43.88 11.77c-.11-.34-.3-.57-.52-.63l-11-2.78c-.4-.1-.77.43-.82 1.2-.05.76.23 1.46.63 1.56l1.25.31c.18.05.31.34.31.7v2.14c0 .42-.19.74-.4.7l-2.94-.6c-.18-.04-.32-.34-.32-.7V7.6c0-.14.02-.27.06-.39l1.28-3.65c.15-.41.16-.95.05-1.4-.12-.44-.36-.73-.63-.76L15.43 0c-.24 0-.48.2-.63.58l-3.57 9.54c-.08.2-.2.31-.34.28L.81 8.36c-.2-.05-.41.08-.57.34C.1 8.97 0 9.34 0 9.74c0 1.34.1 2.65.26 3.93.04.28.17.48.32.52l41.43 8.85c.18.04.34-.16.4-.48l1.56-9.63c.06-.4.03-.82-.09-1.16Zm-22.72-7.7-.57 7.6c-.03.36-.2.63-.4.59l-6.8-1.35c-.28-.06-.42-.66-.26-1.1l2.52-6.69c.07-.19.19-.3.31-.29l4.86.44c.21.02.37.39.34.8Zm7.95 1-.45 1.29c-.04.11-.06.25-.06.39v6.48c0 .41-.19.74-.4.7l-5.83-1.2c-.2-.03-.35-.4-.32-.78l.6-7.88c.02-.35.19-.61.37-.6l5.8.53c.29.02.45.63.3 1.08Zm9.02 10.1c0 .41-.19.73-.4.69l-2.2-.48c-.2-.04-.33-.34-.33-.69v-2.01c0-.42.2-.75.42-.7l2.2.56c.18.05.31.35.31.7v1.93Zm4.05-.7-.27 1.67c-.05.32-.21.53-.39.5l-1.6-.33c-.18-.04-.32-.34-.32-.7V13.8c0-.42.2-.74.42-.69l1.86.47c.23.06.37.49.3.9Z"/></g></symbol></svg>